<svg xmlns="http://www.w3.org/2000/svg" version="1.1" xmlns:xlink="http://www.w3.org/1999/xlink" xmlns:svgjs="http://svgjs.com/svgjs" width="1440" height="560" preserveAspectRatio="none" viewBox="0 0 1440 560"><g mask="url(&quot;#SvgjsMask1024&quot;)" fill="none"><rect width="1440" height="560" x="0" y="0" fill="#0e2a47"></rect><path d="M807.71 533.2 a156.85 156.85 0 1 0 313.7 0 a156.85 156.85 0 1 0 -313.7 0z" fill="rgba(28, 83, 142, 0.4)" class="triangle-float1"></path><path d="M724.71 355.79 a123.87 123.87 0 1 0 247.74 0 a123.87 123.87 0 1 0 -247.74 0z" fill="rgba(28, 83, 142, 0.4)" class="triangle-float3"></path><path d="M1165.17 40.57 a108.9 108.9 0 1 0 217.8 0 a108.9 108.9 0 1 0 -217.8 0z" fill="rgba(28, 83, 142, 0.4)" class="triangle-float3"></path><path d="M492.58 194.84 a176.01 176.01 0 1 0 352.02 0 a176.01 176.01 0 1 0 -352.02 0z" fill="rgba(28, 83, 142, 0.4)" class="triangle-float2"></path><path d="M14.2 36.88 a108.37 108.37 0 1 0 216.74 0 a108.37 108.37 0 1 0 -216.74 0z" fill="rgba(28, 83, 142, 0.4)" class="triangle-float2"></path><path d="M-24.17 404.15 a110.39 110.39 0 1 0 220.78 0 a110.39 110.39 0 1 0 -220.78 0z" fill="rgba(28, 83, 142, 0.4)" class="triangle-float2"></path><path d="M39.85 121.3 a97.12 97.12 0 1 0 194.24 0 a97.12 97.12 0 1 0 -194.24 0z" fill="rgba(28, 83, 142, 0.4)" class="triangle-float2"></path><path d="M361.55 20.78 a111.03 111.03 0 1 0 222.06 0 a111.03 111.03 0 1 0 -222.06 0z" fill="rgba(28, 83, 142, 0.4)" class="triangle-float1"></path><path d="M255.67 403.22 a109.43 109.43 0 1 0 218.86 0 a109.43 109.43 0 1 0 -218.86 0z" fill="rgba(28, 83, 142, 0.4)" class="triangle-float3"></path><path d="M511.86 306.85 a108.97 108.97 0 1 0 217.94 0 a108.97 108.97 0 1 0 -217.94 0z" fill="rgba(28, 83, 142, 0.4)" class="triangle-float2"></path><path d="M921.51 32.75 a183.6 183.6 0 1 0 367.2 0 a183.6 183.6 0 1 0 -367.2 0z" fill="rgba(28, 83, 142, 0.4)" class="triangle-float1"></path><path d="M897.4 106.77 a145.77 145.77 0 1 0 291.54 0 a145.77 145.77 0 1 0 -291.54 0z" fill="rgba(28, 83, 142, 0.4)" class="triangle-float1"></path><path d="M503.49 517.36 a148.66 148.66 0 1 0 297.32 0 a148.66 148.66 0 1 0 -297.32 0z" fill="rgba(28, 83, 142, 0.4)" class="triangle-float3"></path><path d="M470 316.43 a118.74 118.74 0 1 0 237.48 0 a118.74 118.74 0 1 0 -237.48 0z" fill="rgba(28, 83, 142, 0.4)" class="triangle-float2"></path><path d="M359.37 233.91 a117.23 117.23 0 1 0 234.46 0 a117.23 117.23 0 1 0 -234.46 0z" fill="rgba(28, 83, 142, 0.4)" class="triangle-float1"></path><path d="M455.56 377.29 a165.93 165.93 0 1 0 331.86 0 a165.93 165.93 0 1 0 -331.86 0z" fill="rgba(28, 83, 142, 0.4)" class="triangle-float2"></path><path d="M-139.47 390.3 a160.27 160.27 0 1 0 320.54 0 a160.27 160.27 0 1 0 -320.54 0z" fill="rgba(28, 83, 142, 0.4)" class="triangle-float2"></path></g><defs><mask id="SvgjsMask1024"><rect width="1440" height="560" fill="#ffffff"></rect></mask><style>
            @keyframes float1 {
                0%{transform: translate(0, 0)}
                50%{transform: translate(-10px, 0)}
                100%{transform: translate(0, 0)}
            }

            .triangle-float1 {
                animation: float1 5s infinite;
            }

            @keyframes float2 {
                0%{transform: translate(0, 0)}
                50%{transform: translate(-5px, -5px)}
                100%{transform: translate(0, 0)}
            }

            .triangle-float2 {
                animation: float2 4s infinite;
            }

            @keyframes float3 {
                0%{transform: translate(0, 0)}
                50%{transform: translate(0, -10px)}
                100%{transform: translate(0, 0)}
            }

            .triangle-float3 {
                animation: float3 6s infinite;
            }
        </style></defs></svg>