<svg xmlns="http://www.w3.org/2000/svg" version="1.1" xmlns:xlink="http://www.w3.org/1999/xlink" xmlns:svgjs="http://svgjs.com/svgjs" width="1440" height="560" preserveAspectRatio="none" viewBox="0 0 1440 560"><g mask="url(&quot;#SvgjsMask1024&quot;)" fill="none"><rect width="1440" height="560" x="0" y="0" fill="#0e2a47"></rect><path d="M1176 91L1175 -130" stroke-width="6" stroke="url(#SvgjsLinearGradient1025)" stroke-linecap="round" class="Up"></path><path d="M242 419L241 153" stroke-width="6" stroke="url(#SvgjsLinearGradient1025)" stroke-linecap="round" class="Up"></path><path d="M743 128L742 -39" stroke-width="10" stroke="url(#SvgjsLinearGradient1025)" stroke-linecap="round" class="Up"></path><path d="M153 171L152 454" stroke-width="10" stroke="url(#SvgjsLinearGradient1025)" stroke-linecap="round" class="Up"></path><path d="M249 33L248 333" stroke-width="6" stroke="url(#SvgjsLinearGradient1025)" stroke-linecap="round" class="Up"></path><path d="M770 186L769 371" stroke-width="10" stroke="url(#SvgjsLinearGradient1025)" stroke-linecap="round" class="Up"></path><path d="M3 245L2 -42" stroke-width="10" stroke="url(#SvgjsLinearGradient1026)" stroke-linecap="round" class="Down"></path><path d="M296 133L295 -65" stroke-width="10" stroke="url(#SvgjsLinearGradient1025)" stroke-linecap="round" class="Up"></path><path d="M1300 195L1299 26" stroke-width="10" stroke="url(#SvgjsLinearGradient1026)" stroke-linecap="round" class="Down"></path><path d="M947 196L946 608" stroke-width="10" stroke="url(#SvgjsLinearGradient1025)" stroke-linecap="round" class="Up"></path><path d="M196 212L195 454" stroke-width="8" stroke="url(#SvgjsLinearGradient1025)" stroke-linecap="round" class="Up"></path><path d="M115 559L114 712" stroke-width="6" stroke="url(#SvgjsLinearGradient1025)" stroke-linecap="round" class="Up"></path><path d="M566 331L565 615" stroke-width="10" stroke="url(#SvgjsLinearGradient1026)" stroke-linecap="round" class="Down"></path><path d="M304 395L303 71" stroke-width="8" stroke="url(#SvgjsLinearGradient1025)" stroke-linecap="round" class="Up"></path><path d="M291 55L290 -121" stroke-width="10" stroke="url(#SvgjsLinearGradient1025)" stroke-linecap="round" class="Up"></path><path d="M919 461L918 156" stroke-width="10" stroke="url(#SvgjsLinearGradient1026)" stroke-linecap="round" class="Down"></path><path d="M615 98L614 -114" stroke-width="8" stroke="url(#SvgjsLinearGradient1025)" stroke-linecap="round" class="Up"></path><path d="M169 169L168 5" stroke-width="8" stroke="url(#SvgjsLinearGradient1025)" stroke-linecap="round" class="Up"></path><path d="M500 308L499 679" stroke-width="8" stroke="url(#SvgjsLinearGradient1026)" stroke-linecap="round" class="Down"></path><path d="M960 407L959 617" stroke-width="8" stroke="url(#SvgjsLinearGradient1025)" stroke-linecap="round" class="Up"></path><path d="M894 425L893 724" stroke-width="6" stroke="url(#SvgjsLinearGradient1026)" stroke-linecap="round" class="Down"></path><path d="M404 152L403 -121" stroke-width="6" stroke="url(#SvgjsLinearGradient1026)" stroke-linecap="round" class="Down"></path><path d="M740 371L739 -17" stroke-width="8" stroke="url(#SvgjsLinearGradient1025)" stroke-linecap="round" class="Up"></path><path d="M870 145L869 -159" stroke-width="8" stroke="url(#SvgjsLinearGradient1025)" stroke-linecap="round" class="Up"></path><path d="M1335 417L1334 166" stroke-width="6" stroke="url(#SvgjsLinearGradient1025)" stroke-linecap="round" class="Up"></path><path d="M759 347L758 527" stroke-width="10" stroke="url(#SvgjsLinearGradient1025)" stroke-linecap="round" class="Up"></path><path d="M776 534L775 132" stroke-width="8" stroke="url(#SvgjsLinearGradient1025)" stroke-linecap="round" class="Up"></path><path d="M910 292L909 542" stroke-width="10" stroke="url(#SvgjsLinearGradient1025)" stroke-linecap="round" class="Up"></path><path d="M610 550L609 150" stroke-width="8" stroke="url(#SvgjsLinearGradient1025)" stroke-linecap="round" class="Up"></path><path d="M1349 95L1348 -162" stroke-width="10" stroke="url(#SvgjsLinearGradient1026)" stroke-linecap="round" class="Down"></path><path d="M1429 358L1428 -12" stroke-width="6" stroke="url(#SvgjsLinearGradient1025)" stroke-linecap="round" class="Up"></path><path d="M27 198L26 463" stroke-width="10" stroke="url(#SvgjsLinearGradient1026)" stroke-linecap="round" class="Down"></path><path d="M631 66L630 -309" stroke-width="8" stroke="url(#SvgjsLinearGradient1025)" stroke-linecap="round" class="Up"></path><path d="M553 207L552 23" stroke-width="10" stroke="url(#SvgjsLinearGradient1025)" stroke-linecap="round" class="Up"></path><path d="M343 212L342 389" stroke-width="6" stroke="url(#SvgjsLinearGradient1026)" stroke-linecap="round" class="Down"></path><path d="M1176 368L1175 755" stroke-width="10" stroke="url(#SvgjsLinearGradient1025)" stroke-linecap="round" class="Up"></path></g><defs><mask id="SvgjsMask1024"><rect width="1440" height="560" fill="#ffffff"></rect></mask><linearGradient x1="0%" y1="100%" x2="0%" y2="0%" id="SvgjsLinearGradient1025"><stop stop-color="rgba(28, 83, 142, 0)" offset="0"></stop><stop stop-color="#1c538e" offset="1"></stop></linearGradient><linearGradient x1="0%" y1="0%" x2="0%" y2="100%" id="SvgjsLinearGradient1026"><stop stop-color="rgba(28, 83, 142, 0)" offset="0"></stop><stop stop-color="#1c538e" offset="1"></stop></linearGradient></defs></svg>