<svg id="Capa_1" enable-background="new 0 0 512 512" height="512" viewBox="0 0 512 512" width="512" xmlns="http://www.w3.org/2000/svg"><g><g><g><g><g><g><path d="m72.567 434.573c-44.906-46.121-72.567-109.116-72.567-178.573 0-141.385 114.615-256 256-256s256 114.615 256 256c0 69.457-27.661 132.452-72.567 178.573z" fill="#ffce00"/></g></g></g></g></g><path d="m511.713 268.219-177.873-177.873-4.652 9.165-53.841-51.721-128.194 226.363 160.42 160.42h131.86c42.258-43.401 69.244-101.745 72.28-166.354z" fill="#ffa300"/><g><path d="m426.025 415.188c-13.192-19.072-32.262-33.304-54.299-40.523l-10.632-3.483-47.966-15.713c-4.359-1.428-8.207-3.797-11.385-6.817l-45.743 9.773-45.743-9.774c-3.179 3.02-7.027 5.39-11.385 6.817l-47.966 15.713-10.632 3.483c-22.038 7.219-41.108 21.451-54.299 40.523l-13.408 19.385c22.289 22.892 48.826 41.626 78.339 54.929 32.064 14.455 67.639 22.499 105.094 22.499s73.03-8.044 105.094-22.498c29.512-13.304 56.05-32.038 78.339-54.929z" fill="#636978"/></g><g><path d="m426.025 415.188c-13.192-19.072-32.262-33.304-54.299-40.523l-10.632-3.483-47.966-15.713c-4.359-1.428-8.207-3.797-11.385-6.817l-45.622 9.748v153.599c37.41-.018 72.944-8.058 104.974-22.496 29.512-13.304 56.05-32.038 78.339-54.929z" fill="#414952"/></g><g><path d="m313.128 355.469c-4.359-1.428-8.207-3.797-11.385-6.817l-45.743 9.773-45.743-9.774c-3.179 3.02-7.027 5.39-11.385 6.817l-25.843 8.466 53.862 146.428c9.553 1.082 19.266 1.638 29.109 1.638s19.556-.556 29.109-1.637l53.862-146.428z" fill="#414952"/></g><g><path d="m338.972 363.935-25.844-8.466c-4.359-1.428-8.207-3.797-11.385-6.817l-45.743 9.747v153.599c9.922-.005 19.595-.558 29.109-1.635z" fill="#23272b"/></g><g><path d="m256 485.697 49.334-134.117c-1.275-.888-2.474-1.868-3.591-2.929l-45.743 9.774-45.743-9.774c-1.117 1.061-2.316 2.041-3.591 2.929z" fill="#fff"/></g><g><path d="m301.743 348.652-45.743 9.747v127.298l49.334-134.117c-1.275-.887-2.475-1.868-3.591-2.928z" fill="#e9edf5"/></g><g><path d="m292.317 326.752v-39.35h-72.634v39.35c0 8.478-3.551 16.317-9.426 21.899 24.655 26.691 66.83 26.691 91.485 0-5.874-5.581-9.425-13.421-9.425-21.899z" fill="#faa68e"/></g><g><path d="m292.317 326.752v-39.35h-36.317v81.264c16.788-.032 33.445-6.702 45.743-20.015-5.875-5.581-9.426-13.421-9.426-21.899z" fill="#e09380"/></g><g><path d="m349.817 279.797h-15.977v-83.403h38.835v60.544c.001 12.625-10.234 22.859-22.858 22.859z" fill="#414952"/></g><g><path d="m162.183 279.797h15.977v-83.403h-38.835v60.544c-.001 12.625 10.234 22.859 22.858 22.859z" fill="#636978"/></g><g><path d="m256 332.337c-51.82 0-93.828-42.008-93.828-93.828v-57.966c0-51.82 42.008-93.828 93.828-93.828 51.82 0 93.828 42.008 93.828 93.828v57.966c0 51.819-42.008 93.828-93.828 93.828z" fill="#ffcdbe"/></g><g><path d="m256.12 86.717v245.618c51.764-.065 93.707-42.047 93.707-93.826v-57.966c.001-51.779-41.942-93.761-93.707-93.826z" fill="#ffbeaa"/></g><g><path d="m368.101 179.687c0-68.574-50.189-124.165-112.101-124.165-61.911 0-112.101 55.59-112.101 124.165v9.485h224.202z" fill="#636978"/></g><g><path d="m368.101 179.687c0-68.53-50.124-124.091-111.98-124.163v133.648h111.98z" fill="#414952"/></g><g><path d="m356.437 213.736c-66.036-16.448-134.838-16.448-200.875 0-10.615 2.644-20.799-5.788-20.799-17.227v-.532c0-17.916 11.852-33.505 28.547-37.326 61.07-13.979 124.308-13.979 185.378 0 16.696 3.822 28.548 19.41 28.548 37.326v.532c.001 11.439-10.184 19.871-20.799 17.227z" fill="#414952"/></g><g><path d="m348.689 158.65c-30.496-6.98-61.532-10.474-92.569-10.483v53.234c33.669.01 67.338 4.121 100.317 12.335 10.615 2.644 20.799-5.788 20.799-17.227 0-.177 0-.355 0-.532.001-17.916-11.851-33.505-28.547-37.327z" fill="#23272b"/></g><g><path d="m266.099 67.577h-20.199c-6.657 0-12.054-5.397-12.054-12.054 0-6.657 5.397-12.054 12.054-12.054h20.199c6.657 0 12.054 5.397 12.054 12.054.001 6.657-5.396 12.054-12.054 12.054z" fill="#414952"/></g><g><path d="m266.099 43.468h-9.979v24.109h9.979c6.657 0 12.054-5.397 12.054-12.054.001-6.658-5.396-12.055-12.054-12.055z" fill="#23272b"/></g><g><path d="m256 368.67-29.926 35.58-27.202-48.781 11.385-6.817z" fill="#e9edf5"/></g><g><path d="m256 368.67 29.926 35.58 27.202-48.781-11.385-6.817z" fill="#cdd2e1"/></g><g><circle cx="256" cy="397.571" fill="#e9edf5" r="11.219"/></g><g><path d="m267.219 397.571c0-6.155-4.958-11.147-11.219-11.213v22.425c6.26-.065 11.219-5.057 11.219-11.212z" fill="#cdd2e1"/></g><g><circle cx="256" cy="438.621" fill="#e9edf5" r="11.219"/></g><g><path d="m267.219 438.621c0-6.156-4.958-11.147-11.219-11.213v22.425c6.26-.065 11.219-5.057 11.219-11.212z" fill="#cdd2e1"/></g></g></svg>